<?xml version="1.0" encoding="UTF-8" standalone="no"?>
<!-- Uploaded to: SVG Repo, www.svgrepo.com, Transformed by: SVG Repo Mixer Tools -->

<svg
   version="1.1"
   id="Layer_1"
   width="800px"
   height="800px"
   viewBox="-1.44 -1.44 26.88 26.88"
   overflow="visible"
   xml:space="preserve"
   fill="#ffffff"
   sodipodi:docname="logo.svg"
   inkscape:export-filename="security-svgrepo-com.png"
   inkscape:export-xdpi="96"
   inkscape:export-ydpi="96"
   inkscape:version="1.4.4 (dcaf3e7d9e, 2026-05-05)"
   xmlns:inkscape="http://www.inkscape.org/namespaces/inkscape"
   xmlns:sodipodi="http://sodipodi.sourceforge.net/DTD/sodipodi-0.dtd"
   xmlns="http://www.w3.org/2000/svg"
   xmlns:svg="http://www.w3.org/2000/svg"><defs
   id="defs4" /><sodipodi:namedview
   id="namedview4"
   pagecolor="#ffffff"
   bordercolor="#000000"
   borderopacity="0.25"
   inkscape:showpageshadow="2"
   inkscape:pageopacity="0.0"
   inkscape:pagecheckerboard="0"
   inkscape:deskcolor="#d1d1d1"
   inkscape:zoom="0.92375"
   inkscape:cx="399.45873"
   inkscape:cy="400"
   inkscape:window-width="1728"
   inkscape:window-height="992"
   inkscape:window-x="0"
   inkscape:window-y="0"
   inkscape:window-maximized="1"
   inkscape:current-layer="Layer_1" />

<path
   style="fill:#ffffff;stroke-width:0.0297656"
   d="m 3.6222996,5.4721117 8.3925554,-3.4566313 8.260389,3.5823271 0.363457,0.2828154 -0.231291,7.5731651 -1.619036,3.645175 -2.610283,2.891001 -3.469363,1.75974 -0.660832,0.125695 L 8.809824,20.587018 5.7039175,17.853138 3.7214241,14.019418 3.3249258,12.98243 Z"
   id="path4" /><g
   id="SVGRepo_bgCarrier"
   stroke-width="0">



</g>

<g
   id="SVGRepo_tracerCarrier"
   stroke-linecap="round"
   stroke-linejoin="round" />

<g
   id="SVGRepo_iconCarrier"> <g
   id="g4"> <g
   transform="translate(4.000000, 1.000000)"
   id="g3"> <path
   fill="#e01b24"
   d="M8,0l-9,4v6c0,5.6,3.8,10.7,9,12c5.2-1.3,9-6.4,9-12V4L8,0z M8,11h7c-0.5,4.1-3.3,7.8-7,8.9V11l-7,0V5.3 l7-3.1V11z"
   id="path1" /> <path
   fill="#ff7800"
   d="M8,0v22c5.2-1.3,9-6.4,9-12V4L8,0z M15,11c-0.5,4.1-3.3,7.8-7,8.9V11L15,11z"
   id="path2" /> <path
   fill-rule="evenodd"
   fill="#a51d2d"
   d="M17,11h-2c0,0,0,0.3-0.1,0.6L17,11z"
   id="path3" /> <polygon
   fill-rule="evenodd"
   fill="#a51d2d"
   points="-1,11 1,11 1,10.4 "
   id="polygon3" /> </g> </g> </g>

</svg>
