<?xml version="1.0" encoding="UTF-8" standalone="no"?>
<!-- Uploaded to: SVG Repo, www.svgrepo.com, Transformed by: SVG Repo Mixer Tools -->

<svg
   width="800px"
   height="800px"
   viewBox="0 0 24 24"
   fill="none"
   version="1.1"
   id="svg2"
   sodipodi:docname="com.chrisdaggas.security-center.svg"
   inkscape:version="1.4.3 (0d15f75042, 2025-12-25)"
   xmlns:inkscape="http://www.inkscape.org/namespaces/inkscape"
   xmlns:sodipodi="http://sodipodi.sourceforge.net/DTD/sodipodi-0.dtd"
   xmlns="http://www.w3.org/2000/svg"
   xmlns:svg="http://www.w3.org/2000/svg">
  <defs
     id="defs2" />
  <sodipodi:namedview
     id="namedview2"
     pagecolor="#ffffff"
     bordercolor="#000000"
     borderopacity="0.25"
     inkscape:showpageshadow="2"
     inkscape:pageopacity="0.0"
     inkscape:pagecheckerboard="0"
     inkscape:deskcolor="#d1d1d1"
     showgrid="false"
     inkscape:zoom="0.98"
     inkscape:cx="400"
     inkscape:cy="400"
     inkscape:window-width="1920"
     inkscape:window-height="995"
     inkscape:window-x="0"
     inkscape:window-y="0"
     inkscape:window-maximized="1"
     inkscape:current-layer="SVGRepo_iconCarrier" />
  <g
     id="SVGRepo_bgCarrier"
     stroke-width="0" />
  <g
     id="SVGRepo_tracerCarrier"
     stroke-linecap="round"
     stroke-linejoin="round" />
  <g
     id="SVGRepo_iconCarrier">
    <path
       opacity="0.4"
       d="M20.4098 6.95994V9.79994L7.39984 19.3399L4.76984 17.3699C4.11984 16.8799 3.58984 15.8299 3.58984 15.0199V6.95994C3.58984 5.83994 4.44984 4.59994 5.49984 4.20994L10.9698 2.15994C11.5398 1.94994 12.4598 1.94994 13.0298 2.15994L18.4998 4.20994C19.5498 4.59994 20.4098 5.83994 20.4098 6.95994Z"
       fill="#613583"
       id="path1"
       style="opacity:1;fill:#c1a0da;fill-opacity:1" />
    <path
       d="M20.4103 11.1699V15.0199C20.4103 15.8299 19.8803 16.8799 19.2303 17.3699L13.7603 21.4599C13.2803 21.8199 12.6403 21.9999 12.0003 21.9999C11.3603 21.9999 10.7203 21.8199 10.2403 21.4599L8.32031 20.0299L20.4103 11.1699Z"
       fill="#613583"
       id="path2" />
  </g>
</svg>
